M48
;Layer_Color=9474304
;FILE_FORMAT=2:4
INCH,LZ
;TYPE=PLATED
T1F00S00C0.0240
T2F00S00C0.0280
T3F00S00C0.0335
T4F00S00C0.0354
T5F00S00C0.0433
T6F00S00C0.2362
%
T01
X02935Y03815
Y03915
X03035
Y03815
T02
X031Y0377
X0326Y0415
X03215Y04575
X0384Y03915
T03
X015362Y036747
X01535Y03775
Y04175
X0233Y03915
X0273
X0265Y0345
X0225
X018638Y034453
X0297Y0435
X0328Y0402
Y0362
X03215Y04745
X03615
X0297Y0475
T04
X018Y03815
Y03915
Y04015
Y04115
X021
Y04015
Y03915
Y03815
X0341
Y03715
Y03915
Y04015
X0371
Y03915
Y03815
Y03715
T05
X0177Y0455
X0187
Y0465
X0177
X0362Y0445
X0372
Y0435
X0362
T06
X0128Y0405
X0414
M30
