G04*
G04 #@! TF.GenerationSoftware,Altium Limited,Altium Designer,18.1.7 (191)*
G04*
G04 Layer_Physical_Order=2*
G04 Layer_Color=16711680*
%FSLAX24Y24*%
%MOIN*%
G70*
G01*
G75*
%ADD10C,0.0197*%
%ADD11C,0.0100*%
%ADD12R,0.0700X0.0700*%
%ADD13C,0.0700*%
%ADD14C,0.0433*%
%ADD15C,0.0551*%
%ADD16C,0.0591*%
%ADD17R,0.0591X0.0591*%
%ADD18R,0.0700X0.0700*%
%ADD19C,0.0500*%
G36*
X42546Y46112D02*
Y41666D01*
X42496Y41643D01*
X42332Y41783D01*
X42120Y41913D01*
X41890Y42008D01*
X41648Y42066D01*
X41400Y42086D01*
X41152Y42066D01*
X40910Y42008D01*
X40680Y41913D01*
X40468Y41783D01*
X40279Y41621D01*
X40117Y41432D01*
X39987Y41220D01*
X39892Y40990D01*
X39834Y40748D01*
X39814Y40500D01*
X39834Y40252D01*
X39892Y40010D01*
X39987Y39780D01*
X40117Y39568D01*
X40279Y39379D01*
X40468Y39217D01*
X40680Y39087D01*
X40910Y38992D01*
X41152Y38934D01*
X41400Y38914D01*
X41648Y38934D01*
X41890Y38992D01*
X42120Y39087D01*
X42332Y39217D01*
X42496Y39357D01*
X42546Y39334D01*
Y34088D01*
X40012Y31554D01*
X13688D01*
X11654Y33588D01*
Y39334D01*
X11704Y39357D01*
X11868Y39217D01*
X12080Y39087D01*
X12310Y38992D01*
X12552Y38934D01*
X12800Y38914D01*
X13048Y38934D01*
X13290Y38992D01*
X13520Y39087D01*
X13732Y39217D01*
X13921Y39379D01*
X14083Y39568D01*
X14213Y39780D01*
X14308Y40010D01*
X14366Y40252D01*
X14386Y40500D01*
X14366Y40748D01*
X14308Y40990D01*
X14213Y41220D01*
X14083Y41432D01*
X13921Y41621D01*
X13732Y41783D01*
X13520Y41913D01*
X13290Y42008D01*
X13048Y42066D01*
X12800Y42086D01*
X12552Y42066D01*
X12310Y42008D01*
X12080Y41913D01*
X11868Y41783D01*
X11704Y41643D01*
X11654Y41666D01*
Y47012D01*
X13188Y48546D01*
X16180D01*
X16197Y48496D01*
X16145Y48455D01*
X14995Y47305D01*
X14915Y47201D01*
X14864Y47080D01*
X14847Y46950D01*
Y42202D01*
X14786Y42127D01*
X14723Y42010D01*
X14684Y41882D01*
X14671Y41750D01*
X14684Y41618D01*
X14723Y41490D01*
X14786Y41373D01*
X14870Y41270D01*
X14973Y41186D01*
X15090Y41123D01*
X15218Y41084D01*
X15350Y41071D01*
X15482Y41084D01*
X15610Y41123D01*
X15727Y41186D01*
X15802Y41247D01*
X16750D01*
X16880Y41264D01*
X17001Y41315D01*
X17105Y41395D01*
X17259Y41548D01*
X17305Y41528D01*
Y40455D01*
X17325D01*
X17351Y40405D01*
X17315Y40286D01*
X17301Y40150D01*
X17315Y40014D01*
X17355Y39883D01*
X17419Y39762D01*
X17468Y39703D01*
X17444Y39653D01*
X17050D01*
X16920Y39636D01*
X16799Y39585D01*
X16695Y39505D01*
X16245Y39055D01*
X16165Y38951D01*
X16114Y38830D01*
X16097Y38700D01*
Y37950D01*
X16114Y37820D01*
X16165Y37699D01*
X16245Y37595D01*
X18097Y35742D01*
Y34860D01*
X18082Y34842D01*
X18017Y34726D01*
X17976Y34600D01*
X17960Y34468D01*
X17970Y34335D01*
X18006Y34207D01*
X18066Y34088D01*
X18148Y33983D01*
X18249Y33897D01*
X18365Y33831D01*
X18491Y33790D01*
X18623Y33774D01*
X18756Y33784D01*
X18884Y33820D01*
X19003Y33880D01*
X19092Y33950D01*
X22105D01*
X22123Y33936D01*
X22240Y33873D01*
X22368Y33834D01*
X22500Y33821D01*
X22632Y33834D01*
X22760Y33873D01*
X22877Y33936D01*
X22980Y34020D01*
X23064Y34123D01*
X23127Y34240D01*
X23166Y34368D01*
X23179Y34500D01*
X23166Y34632D01*
X23127Y34760D01*
X23064Y34877D01*
X22980Y34980D01*
X22877Y35064D01*
X22760Y35127D01*
X22632Y35166D01*
X22500Y35179D01*
X22368Y35166D01*
X22240Y35127D01*
X22123Y35064D01*
X22020Y34980D01*
X22000Y34956D01*
X19103D01*
Y35950D01*
X19086Y36080D01*
X19035Y36201D01*
X18955Y36305D01*
X17853Y37408D01*
X17864Y37462D01*
X17867Y37464D01*
X17902Y37461D01*
Y38150D01*
X18000D01*
Y38248D01*
X18689D01*
X18685Y38286D01*
X18645Y38417D01*
X18581Y38538D01*
X18520Y38613D01*
X18498Y38650D01*
X18520Y38687D01*
X18581Y38762D01*
X18625Y38771D01*
X18699Y38715D01*
X18820Y38664D01*
X18950Y38647D01*
X20444D01*
X20468Y38597D01*
X20419Y38538D01*
X20355Y38417D01*
X20315Y38286D01*
X20301Y38150D01*
X20315Y38014D01*
X20355Y37883D01*
X20419Y37762D01*
X20506Y37656D01*
X20612Y37569D01*
X20733Y37505D01*
X20864Y37465D01*
X21000Y37451D01*
X21136Y37465D01*
X21267Y37505D01*
X21388Y37569D01*
X21494Y37656D01*
X21581Y37762D01*
X21645Y37883D01*
X21685Y38014D01*
X21699Y38150D01*
X21685Y38286D01*
X21645Y38417D01*
X21581Y38538D01*
X21532Y38597D01*
X21556Y38647D01*
X22848D01*
X22923Y38586D01*
X23040Y38523D01*
X23168Y38484D01*
X23300Y38471D01*
X23432Y38484D01*
X23560Y38523D01*
X23677Y38586D01*
X23780Y38670D01*
X23864Y38773D01*
X23927Y38890D01*
X23966Y39018D01*
X23979Y39150D01*
X23966Y39282D01*
X23927Y39410D01*
X23864Y39527D01*
X23807Y39597D01*
X23831Y39647D01*
X26769D01*
X26793Y39597D01*
X26736Y39527D01*
X26673Y39410D01*
X26634Y39282D01*
X26621Y39150D01*
X26634Y39018D01*
X26673Y38890D01*
X26736Y38773D01*
X26820Y38670D01*
X26923Y38586D01*
X27040Y38523D01*
X27168Y38484D01*
X27300Y38471D01*
X27432Y38484D01*
X27560Y38523D01*
X27677Y38586D01*
X27752Y38647D01*
X28856D01*
X28876Y38597D01*
X28807Y38513D01*
X28747Y38400D01*
X28709Y38277D01*
X28707Y38248D01*
X29350D01*
Y38150D01*
X29448D01*
Y37507D01*
X29477Y37509D01*
X29600Y37547D01*
X29713Y37607D01*
X29812Y37688D01*
X29825Y37704D01*
X29875D01*
X29888Y37688D01*
X29987Y37607D01*
X30100Y37547D01*
X30223Y37509D01*
X30286Y37503D01*
X30445Y37345D01*
X30462Y37331D01*
X30538Y37238D01*
X30637Y37157D01*
X30750Y37097D01*
X30873Y37059D01*
X31000Y37047D01*
X31127Y37059D01*
X31250Y37097D01*
X31363Y37157D01*
X31462Y37238D01*
X31543Y37337D01*
X31603Y37450D01*
X31641Y37573D01*
X31648Y37647D01*
X33544D01*
X33568Y37597D01*
X33519Y37538D01*
X33455Y37417D01*
X33415Y37286D01*
X33411Y37248D01*
X34789D01*
X34785Y37286D01*
X34745Y37417D01*
X34681Y37538D01*
X34620Y37613D01*
X34598Y37650D01*
X34620Y37687D01*
X34681Y37762D01*
X34695Y37788D01*
X34700Y37788D01*
X34752Y37789D01*
X34849Y37715D01*
X34970Y37664D01*
X35100Y37647D01*
X36544D01*
X36568Y37597D01*
X36519Y37538D01*
X36455Y37417D01*
X36415Y37286D01*
X36401Y37150D01*
X36415Y37014D01*
X36455Y36883D01*
X36519Y36762D01*
X36606Y36656D01*
X36712Y36569D01*
X36833Y36505D01*
X36964Y36465D01*
X37100Y36451D01*
X37236Y36465D01*
X37367Y36505D01*
X37488Y36569D01*
X37594Y36656D01*
X37681Y36762D01*
X37745Y36883D01*
X37785Y37014D01*
X37799Y37150D01*
X37785Y37286D01*
X37745Y37417D01*
X37681Y37538D01*
X37620Y37613D01*
X37598Y37650D01*
X37620Y37687D01*
X37681Y37762D01*
X37745Y37883D01*
X37785Y38014D01*
X37799Y38150D01*
X37785Y38286D01*
X37745Y38417D01*
X37681Y38538D01*
X37632Y38597D01*
X37656Y38647D01*
X37988D01*
X38037Y38607D01*
X38150Y38547D01*
X38273Y38509D01*
X38400Y38497D01*
X38527Y38509D01*
X38650Y38547D01*
X38763Y38607D01*
X38862Y38688D01*
X38943Y38787D01*
X39003Y38900D01*
X39041Y39023D01*
X39053Y39150D01*
X39041Y39277D01*
X39003Y39400D01*
X38943Y39513D01*
X38862Y39612D01*
X38763Y39693D01*
X38650Y39753D01*
X38527Y39791D01*
X38400Y39803D01*
X38273Y39791D01*
X38150Y39753D01*
X38037Y39693D01*
X37988Y39653D01*
X37656D01*
X37632Y39703D01*
X37681Y39762D01*
X37745Y39883D01*
X37785Y40014D01*
X37799Y40150D01*
X37785Y40286D01*
X37745Y40417D01*
X37681Y40538D01*
X37594Y40644D01*
X37488Y40731D01*
X37367Y40795D01*
X37236Y40835D01*
X37100Y40849D01*
X36964Y40835D01*
X36833Y40795D01*
X36712Y40731D01*
X36606Y40644D01*
X36519Y40538D01*
X36455Y40417D01*
X36415Y40286D01*
X36401Y40150D01*
X36415Y40014D01*
X36455Y39883D01*
X36519Y39762D01*
X36580Y39687D01*
X36602Y39650D01*
X36580Y39613D01*
X36519Y39538D01*
X36455Y39417D01*
X36415Y39286D01*
X36401Y39150D01*
X36415Y39014D01*
X36455Y38883D01*
X36519Y38762D01*
X36568Y38703D01*
X36544Y38653D01*
X35308D01*
X34797Y39164D01*
X34785Y39286D01*
X34749Y39405D01*
X34775Y39455D01*
X34795D01*
Y40845D01*
X33840D01*
X33836Y40880D01*
X33785Y41001D01*
X33705Y41105D01*
X33247Y41564D01*
X33241Y41627D01*
X33203Y41750D01*
X33143Y41863D01*
X33062Y41962D01*
X32963Y42043D01*
X32850Y42103D01*
X32727Y42141D01*
X32600Y42153D01*
X32473Y42141D01*
X32350Y42103D01*
X32237Y42043D01*
X32138Y41962D01*
X32057Y41863D01*
X31997Y41750D01*
X31959Y41627D01*
X31947Y41500D01*
X31959Y41373D01*
X31997Y41250D01*
X32057Y41137D01*
X32138Y41038D01*
X32237Y40957D01*
X32350Y40897D01*
X32473Y40859D01*
X32491Y40858D01*
X32501Y40806D01*
X32423Y40764D01*
X32328Y40687D01*
X32320Y40686D01*
X32199Y40635D01*
X32095Y40555D01*
X31642Y40103D01*
X30800D01*
X30670Y40086D01*
X30549Y40035D01*
X30445Y39955D01*
X30335Y39846D01*
X30279Y39860D01*
X30205Y39955D01*
X29655Y40505D01*
X29551Y40585D01*
X29430Y40636D01*
X29300Y40653D01*
X21556D01*
X21532Y40703D01*
X21581Y40762D01*
X21645Y40883D01*
X21685Y41014D01*
X21699Y41150D01*
X21685Y41286D01*
X21645Y41417D01*
X21581Y41538D01*
X21494Y41644D01*
X21388Y41731D01*
X21267Y41795D01*
X21136Y41835D01*
X21000Y41849D01*
X20864Y41835D01*
X20733Y41795D01*
X20612Y41731D01*
X20506Y41644D01*
X20419Y41538D01*
X20405Y41512D01*
X20356Y41505D01*
X19205Y42655D01*
X19101Y42735D01*
X18980Y42786D01*
X18850Y42803D01*
X17300D01*
X17170Y42786D01*
X17049Y42735D01*
X16945Y42655D01*
X16542Y42253D01*
X15853D01*
Y46742D01*
X16254Y47143D01*
X16300Y47124D01*
Y46700D01*
X17074D01*
X17104Y46660D01*
X17092Y46621D01*
X17080Y46500D01*
X17092Y46379D01*
X17116Y46300D01*
X17079Y46250D01*
X16950D01*
Y45598D01*
X17700D01*
Y45500D01*
X17798D01*
Y44750D01*
X18450D01*
Y44750D01*
X18490Y44780D01*
X18553Y44761D01*
X18700Y44746D01*
X18847Y44761D01*
X18988Y44804D01*
X19119Y44873D01*
X19233Y44967D01*
X19258Y44997D01*
X20500D01*
X20630Y45014D01*
X20751Y45065D01*
X20855Y45145D01*
X21755Y46045D01*
X21835Y46149D01*
X21886Y46270D01*
X21903Y46400D01*
Y47800D01*
X21886Y47930D01*
X21835Y48051D01*
X21755Y48155D01*
X21455Y48455D01*
X21403Y48496D01*
X21419Y48546D01*
X40112D01*
X42546Y46112D01*
D02*
G37*
%LPC*%
G36*
X29700Y48179D02*
X29568Y48166D01*
X29440Y48127D01*
X29323Y48064D01*
X29220Y47980D01*
X29136Y47877D01*
X29073Y47760D01*
X29034Y47632D01*
X29021Y47500D01*
X29034Y47368D01*
X29073Y47240D01*
X29136Y47123D01*
X29220Y47020D01*
X29323Y46936D01*
X29440Y46873D01*
X29568Y46834D01*
X29700Y46821D01*
X29832Y46834D01*
X29960Y46873D01*
X30077Y46936D01*
X30091Y46947D01*
X31647D01*
Y46162D01*
X31607Y46113D01*
X31547Y46000D01*
X31509Y45877D01*
X31497Y45750D01*
X31509Y45623D01*
X31547Y45500D01*
X31607Y45387D01*
X31688Y45288D01*
X31787Y45207D01*
X31900Y45147D01*
X32023Y45109D01*
X32150Y45097D01*
X32277Y45109D01*
X32400Y45147D01*
X32513Y45207D01*
X32612Y45288D01*
X32693Y45387D01*
X32753Y45500D01*
X32791Y45623D01*
X32803Y45750D01*
X32791Y45877D01*
X32753Y46000D01*
X32693Y46113D01*
X32653Y46162D01*
Y46998D01*
X32714Y47073D01*
X32777Y47190D01*
X32816Y47318D01*
X32829Y47450D01*
X32816Y47582D01*
X32777Y47710D01*
X32714Y47827D01*
X32630Y47930D01*
X32527Y48014D01*
X32410Y48077D01*
X32282Y48116D01*
X32150Y48129D01*
X32018Y48116D01*
X31890Y48077D01*
X31773Y48014D01*
X31698Y47953D01*
X30202D01*
X30180Y47980D01*
X30077Y48064D01*
X29960Y48127D01*
X29832Y48166D01*
X29700Y48179D01*
D02*
G37*
G36*
X17602Y45402D02*
X16950D01*
Y44750D01*
X17602D01*
Y45402D01*
D02*
G37*
G36*
X36102Y45250D02*
X35450D01*
Y44598D01*
X36102D01*
Y45250D01*
D02*
G37*
G36*
X29798Y44169D02*
Y43598D01*
X30369D01*
X30366Y43632D01*
X30327Y43760D01*
X30264Y43877D01*
X30180Y43980D01*
X30077Y44064D01*
X29960Y44127D01*
X29832Y44166D01*
X29798Y44169D01*
D02*
G37*
G36*
X29602D02*
X29568Y44166D01*
X29440Y44127D01*
X29323Y44064D01*
X29220Y43980D01*
X29136Y43877D01*
X29073Y43760D01*
X29034Y43632D01*
X29031Y43598D01*
X29602D01*
Y44169D01*
D02*
G37*
G36*
X36150Y48129D02*
X36018Y48116D01*
X35890Y48077D01*
X35773Y48014D01*
X35670Y47930D01*
X35586Y47827D01*
X35523Y47710D01*
X35484Y47582D01*
X35471Y47450D01*
X35484Y47318D01*
X35523Y47190D01*
X35586Y47073D01*
X35670Y46970D01*
X35773Y46886D01*
X35890Y46823D01*
X36018Y46784D01*
X36114Y46775D01*
X37997Y44892D01*
Y43108D01*
X37792Y42903D01*
X37544D01*
X37529Y42920D01*
X37540Y42983D01*
X37544Y42985D01*
X37638Y43062D01*
X37715Y43156D01*
X37772Y43263D01*
X37808Y43379D01*
X37820Y43500D01*
X37808Y43621D01*
X37772Y43737D01*
X37715Y43844D01*
X37638Y43938D01*
X37593Y43975D01*
Y44025D01*
X37638Y44062D01*
X37715Y44156D01*
X37772Y44263D01*
X37808Y44379D01*
X37820Y44500D01*
X37808Y44621D01*
X37772Y44737D01*
X37715Y44844D01*
X37638Y44938D01*
X37544Y45015D01*
X37437Y45072D01*
X37321Y45108D01*
X37200Y45120D01*
X37079Y45108D01*
X37000Y45084D01*
X36950Y45121D01*
Y45250D01*
X36298D01*
Y44500D01*
X36200D01*
Y44402D01*
X35450D01*
Y43750D01*
X35450D01*
X35480Y43710D01*
X35461Y43647D01*
X35446Y43500D01*
X35461Y43353D01*
X35504Y43212D01*
X35573Y43081D01*
X35667Y42967D01*
X35781Y42873D01*
X35912Y42804D01*
X36053Y42761D01*
X36200Y42746D01*
X36239Y42750D01*
X36945Y42045D01*
X37049Y41965D01*
X37170Y41914D01*
X37300Y41897D01*
X38000D01*
X38130Y41914D01*
X38251Y41965D01*
X38355Y42045D01*
X38855Y42545D01*
X38935Y42649D01*
X38986Y42770D01*
X39003Y42900D01*
Y45100D01*
X38986Y45230D01*
X38935Y45351D01*
X38855Y45455D01*
X36825Y47486D01*
X36816Y47582D01*
X36777Y47710D01*
X36714Y47827D01*
X36630Y47930D01*
X36527Y48014D01*
X36410Y48077D01*
X36282Y48116D01*
X36150Y48129D01*
D02*
G37*
G36*
X30369Y43402D02*
X29798D01*
Y42831D01*
X29832Y42834D01*
X29960Y42873D01*
X30077Y42936D01*
X30180Y43020D01*
X30264Y43123D01*
X30327Y43240D01*
X30366Y43368D01*
X30369Y43402D01*
D02*
G37*
G36*
X29602D02*
X29031D01*
X29034Y43368D01*
X29073Y43240D01*
X29136Y43123D01*
X29220Y43020D01*
X29323Y42936D01*
X29440Y42873D01*
X29568Y42834D01*
X29602Y42831D01*
Y43402D01*
D02*
G37*
G36*
X29252Y38052D02*
X28707D01*
X28709Y38023D01*
X28747Y37900D01*
X28807Y37787D01*
X28888Y37688D01*
X28987Y37607D01*
X29100Y37547D01*
X29223Y37509D01*
X29252Y37507D01*
Y38052D01*
D02*
G37*
G36*
X18689D02*
X18098D01*
Y37461D01*
X18136Y37465D01*
X18267Y37505D01*
X18388Y37569D01*
X18494Y37656D01*
X18581Y37762D01*
X18645Y37883D01*
X18685Y38014D01*
X18689Y38052D01*
D02*
G37*
G36*
X34789Y37052D02*
X34198D01*
Y36461D01*
X34236Y36465D01*
X34367Y36505D01*
X34488Y36569D01*
X34594Y36656D01*
X34681Y36762D01*
X34745Y36883D01*
X34785Y37014D01*
X34789Y37052D01*
D02*
G37*
G36*
X34002D02*
X33411D01*
X33415Y37014D01*
X33455Y36883D01*
X33519Y36762D01*
X33606Y36656D01*
X33712Y36569D01*
X33833Y36505D01*
X33964Y36465D01*
X34002Y36461D01*
Y37052D01*
D02*
G37*
G36*
X32898Y36869D02*
Y36298D01*
X33469D01*
X33466Y36332D01*
X33427Y36460D01*
X33364Y36577D01*
X33280Y36680D01*
X33177Y36764D01*
X33060Y36827D01*
X32932Y36866D01*
X32898Y36869D01*
D02*
G37*
G36*
X32702D02*
X32668Y36866D01*
X32540Y36827D01*
X32423Y36764D01*
X32320Y36680D01*
X32236Y36577D01*
X32173Y36460D01*
X32134Y36332D01*
X32131Y36298D01*
X32702D01*
Y36869D01*
D02*
G37*
G36*
X15350Y38429D02*
X15218Y38416D01*
X15090Y38377D01*
X14973Y38314D01*
X14870Y38230D01*
X14786Y38127D01*
X14723Y38010D01*
X14684Y37882D01*
X14671Y37750D01*
X14684Y37618D01*
X14723Y37490D01*
X14786Y37373D01*
X14847Y37298D01*
Y37185D01*
X14806Y37137D01*
X14740Y37021D01*
X14699Y36894D01*
X14683Y36762D01*
X14693Y36629D01*
X14729Y36501D01*
X14789Y36382D01*
X14871Y36278D01*
X14972Y36191D01*
X15088Y36126D01*
X15215Y36084D01*
X15347Y36068D01*
X15480Y36079D01*
X15608Y36114D01*
X15726Y36175D01*
X15831Y36257D01*
X15918Y36358D01*
X15983Y36474D01*
X16024Y36600D01*
X16040Y36732D01*
X16030Y36865D01*
X15994Y36993D01*
X15934Y37112D01*
X15853Y37216D01*
Y37298D01*
X15914Y37373D01*
X15977Y37490D01*
X16016Y37618D01*
X16029Y37750D01*
X16016Y37882D01*
X15977Y38010D01*
X15914Y38127D01*
X15830Y38230D01*
X15727Y38314D01*
X15610Y38377D01*
X15482Y38416D01*
X15350Y38429D01*
D02*
G37*
G36*
X33469Y36102D02*
X32898D01*
Y35531D01*
X32932Y35534D01*
X33060Y35573D01*
X33177Y35636D01*
X33280Y35720D01*
X33364Y35823D01*
X33427Y35940D01*
X33466Y36068D01*
X33469Y36102D01*
D02*
G37*
G36*
X32702D02*
X32131D01*
X32134Y36068D01*
X32173Y35940D01*
X32236Y35823D01*
X32320Y35720D01*
X32423Y35636D01*
X32540Y35573D01*
X32668Y35534D01*
X32702Y35531D01*
Y36102D01*
D02*
G37*
G36*
X26598Y35169D02*
Y34598D01*
X27169D01*
X27166Y34632D01*
X27127Y34760D01*
X27064Y34877D01*
X26980Y34980D01*
X26877Y35064D01*
X26760Y35127D01*
X26632Y35166D01*
X26598Y35169D01*
D02*
G37*
G36*
X26402D02*
X26368Y35166D01*
X26240Y35127D01*
X26123Y35064D01*
X26020Y34980D01*
X25936Y34877D01*
X25873Y34760D01*
X25834Y34632D01*
X25831Y34598D01*
X26402D01*
Y35169D01*
D02*
G37*
G36*
X27169Y34402D02*
X26598D01*
Y33831D01*
X26632Y33834D01*
X26760Y33873D01*
X26877Y33936D01*
X26980Y34020D01*
X27064Y34123D01*
X27127Y34240D01*
X27166Y34368D01*
X27169Y34402D01*
D02*
G37*
G36*
X26402D02*
X25831D01*
X25834Y34368D01*
X25873Y34240D01*
X25936Y34123D01*
X26020Y34020D01*
X26123Y33936D01*
X26240Y33873D01*
X26368Y33834D01*
X26402Y33831D01*
Y34402D01*
D02*
G37*
%LPD*%
D10*
X29850Y38650D02*
X30350Y38150D01*
X29850Y38650D02*
Y39600D01*
X16500Y48100D02*
X21100D01*
X15350Y46950D02*
X16500Y48100D01*
X15350Y41750D02*
Y46950D01*
X21400Y46400D02*
Y47800D01*
X21100Y48100D02*
X21400Y47800D01*
X20500Y45500D02*
X21400Y46400D01*
X18700Y45500D02*
X20500D01*
X17300Y42300D02*
X18850D01*
X16750Y41750D02*
X17300Y42300D01*
X18850D02*
X21000Y40150D01*
X15350Y41750D02*
X16750D01*
X31850Y39600D02*
X32450Y40200D01*
X30800Y39600D02*
X31850D01*
X30350Y39150D02*
X30800Y39600D01*
X35100Y38150D02*
X37100D01*
X34100Y39150D02*
X35100Y38150D01*
X33350Y39150D02*
X34100D01*
X31350Y38150D02*
X34100D01*
X32450Y40200D02*
X32800D01*
X21000Y39150D02*
X23300D01*
X16600Y38700D02*
X17050Y39150D01*
X16600Y37950D02*
Y38700D01*
Y37950D02*
X18600Y35950D01*
X17050Y39150D02*
X18000D01*
X18600Y34491D02*
X18638Y34453D01*
X18600Y34491D02*
Y35950D01*
X32150Y45750D02*
Y47450D01*
X32600Y41500D02*
X33350Y40750D01*
Y39150D02*
Y40750D01*
X37100Y39150D02*
X38400D01*
X30800Y37700D02*
X31000D01*
X30350Y38150D02*
X30800Y37700D01*
X22453Y34453D02*
X22500Y34500D01*
X18638Y34453D02*
X22453D01*
X15350Y36759D02*
X15362Y36747D01*
X15350Y36759D02*
Y37750D01*
X29300Y40150D02*
X29850Y39600D01*
X30350Y39150D02*
X31350Y38150D01*
X27300Y39150D02*
X29350D01*
X29700Y47500D02*
X29750Y47450D01*
X32150D01*
X38500Y42900D02*
Y45100D01*
X38000Y42400D02*
X38500Y42900D01*
X37300Y42400D02*
X38000D01*
X36200Y43500D02*
X37300Y42400D01*
X36150Y47450D02*
X38500Y45100D01*
X21000Y40150D02*
X29300D01*
X18950Y39150D02*
X20950D01*
X17950Y40150D02*
X18950Y39150D01*
D11*
X16800Y47500D02*
X17200D01*
X19199D02*
X19599D01*
X19399Y47700D02*
Y47300D01*
D12*
X17700Y45500D02*
D03*
D13*
X18700D02*
D03*
X36200Y43500D02*
D03*
D14*
X17700Y46500D02*
D03*
X18700D02*
D03*
X37200Y43500D02*
D03*
Y44500D02*
D03*
D15*
X32800Y36200D02*
D03*
Y40200D02*
D03*
X36150Y47450D02*
D03*
X32150D02*
D03*
X29700Y47500D02*
D03*
Y43500D02*
D03*
X27300Y39150D02*
D03*
X23300D02*
D03*
X22500Y34500D02*
D03*
X26500D02*
D03*
X15362Y36747D02*
D03*
X18638Y34453D02*
D03*
X15350Y41750D02*
D03*
Y37750D02*
D03*
D16*
X21000Y38150D02*
D03*
Y39150D02*
D03*
Y40150D02*
D03*
Y41150D02*
D03*
X18000Y38150D02*
D03*
Y39150D02*
D03*
Y40150D02*
D03*
X37100Y37150D02*
D03*
Y38150D02*
D03*
Y39150D02*
D03*
Y40150D02*
D03*
X34100Y37150D02*
D03*
Y38150D02*
D03*
Y39150D02*
D03*
D17*
X18000Y41150D02*
D03*
X34100Y40150D02*
D03*
D18*
X36200Y44500D02*
D03*
D19*
X29350Y39150D02*
D03*
X30350D02*
D03*
Y38150D02*
D03*
X29350D02*
D03*
X32150Y45750D02*
D03*
X32600Y41500D02*
D03*
X38400Y39150D02*
D03*
X31000Y37700D02*
D03*
M02*
